<svg width="512" height="512" viewBox="0 0 512 512" fill="none" xmlns="http://www.w3.org/2000/svg">
<rect x="6" y="6" width="500" height="500" rx="150" fill="black"/>
<path d="M254.357 70.8857C255.177 70.6476 256.048 70.6476 256.868 70.8857L440.501 124.229C445.501 125.681 444.452 133.051 439.245 133.051H71.9795C66.773 133.051 65.7248 125.681 70.7246 124.229L254.357 70.8857Z" fill="white" stroke="white"/>
<rect x="434.642" y="155.293" width="358.059" height="11.7101" rx="3" transform="rotate(180 434.642 155.293)" fill="white" stroke="white"/>
<rect x="434.642" y="398.902" width="358.059" height="9.59172" rx="3" transform="rotate(180 434.642 398.902)" fill="white" stroke="white"/>
<rect x="456.885" y="427.5" width="403.604" height="19.1243" rx="3" transform="rotate(180 456.885 427.5)" fill="white" stroke="white"/>
<rect x="169.14" y="178.996" width="71.7158" height="18.1312" rx="5.5" transform="rotate(180 169.14 178.996)" fill="white" stroke="white"/>
<rect x="169.14" y="383.063" width="71.7158" height="18.1312" rx="5.5" transform="rotate(180 169.14 383.063)" fill="white" stroke="white"/>
<path d="M160.551 364.431H151.471C152.023 364.431 152.471 363.983 152.471 363.431V184.323C152.471 183.77 152.023 183.323 151.471 183.323H147.412C146.859 183.323 146.412 183.77 146.412 184.323V363.431C146.412 363.983 146.859 364.431 147.412 364.431H135.312C135.864 364.431 136.312 363.983 136.312 363.431V184.323C136.312 183.77 135.864 183.323 135.312 183.323H131.252C130.7 183.323 130.252 183.771 130.252 184.323V363.431C130.252 363.983 130.7 364.431 131.252 364.431H119.154C119.706 364.431 120.154 363.983 120.154 363.431V184.323C120.154 183.771 119.706 183.323 119.154 183.323H115.093C114.541 183.323 114.093 183.771 114.093 184.323V363.431C114.093 363.983 114.541 364.431 115.093 364.431H106.014V179.496H160.551V364.431Z" fill="white"/>
<rect x="422.636" y="178.996" width="71.7158" height="18.1312" rx="5.5" transform="rotate(180 422.636 178.996)" fill="white" stroke="white"/>
<rect x="422.636" y="383.063" width="71.7158" height="18.1312" rx="5.5" transform="rotate(180 422.636 383.063)" fill="white" stroke="white"/>
<path d="M414.047 364.431H404.967C405.519 364.431 405.967 363.983 405.967 363.431V184.323C405.967 183.77 405.519 183.323 404.967 183.323H400.907C400.355 183.323 399.907 183.77 399.907 184.323V363.431C399.907 363.983 400.355 364.431 400.907 364.431H388.807C389.36 364.431 389.807 363.983 389.807 363.431V184.323C389.807 183.77 389.36 183.323 388.807 183.323H384.748C384.196 183.323 383.748 183.77 383.748 184.323V363.431C383.748 363.983 384.196 364.431 384.748 364.431H372.648C373.201 364.431 373.648 363.983 373.648 363.431V184.323C373.648 183.77 373.201 183.323 372.648 183.323H368.589C368.037 183.323 367.589 183.771 367.589 184.323V363.431C367.589 363.983 368.037 364.431 368.589 364.431H359.51V179.496H414.047V364.431Z" fill="white"/>
<rect x="186.737" y="198.66" width="36.071" height="175.882" rx="6.5" fill="white" stroke="white"/>
<rect x="270.452" y="232.195" width="35.3579" height="148.471" rx="6.5" transform="rotate(-14.4035 270.452 232.195)" fill="white" stroke="white"/>
<rect x="232.281" y="259.033" width="36.071" height="115.509" rx="6.5" fill="white" stroke="white"/>
</svg>
