<svg width="512" height="512" viewBox="0 0 512 512" fill="none" xmlns="http://www.w3.org/2000/svg">
<path d="M254.889 55.4065C255.801 55.141 256.77 55.141 257.683 55.4065L464.472 115.579C470.026 117.195 468.859 125.38 463.075 125.38H49.496C43.7121 125.38 42.5455 117.195 48.099 115.579L254.889 55.4065Z" fill="black"/>
<rect x="454.637" y="148.871" width="396.703" height="12.4057" rx="3" transform="rotate(180 454.637 148.871)" fill="black" stroke="black"/>
<rect x="454.637" y="419.22" width="396.703" height="10.1714" rx="3" transform="rotate(180 454.637 419.22)" fill="black" stroke="black"/>
<rect x="479.214" y="450.5" width="445.857" height="21.3429" rx="3" transform="rotate(180 479.214 450.5)" fill="black" stroke="black"/>
<rect x="160.829" y="175.619" width="79.4343" height="20.1619" rx="5.5" transform="rotate(180 160.829 175.619)" fill="black" stroke="black"/>
<rect x="160.829" y="401.346" width="79.4343" height="20.1619" rx="5.5" transform="rotate(180 160.829 401.346)" fill="black" stroke="black"/>
<path d="M151.275 380.683H141.337C141.889 380.683 142.337 380.236 142.337 379.683V181.351C142.337 180.799 141.889 180.351 141.337 180.351H136.634C136.082 180.352 135.634 180.799 135.634 181.351V379.683C135.634 380.236 136.082 380.683 136.634 380.683H123.463C124.015 380.683 124.463 380.236 124.463 379.683V181.351C124.463 180.799 124.015 180.352 123.463 180.351H118.76C118.208 180.351 117.76 180.799 117.76 181.351V379.683C117.76 380.236 118.208 380.683 118.76 380.683H105.588C106.141 380.683 106.588 380.236 106.588 379.683V181.351C106.588 180.799 106.141 180.351 105.588 180.351H100.886C100.334 180.351 99.8861 180.799 99.8861 181.351V379.683C99.8861 380.236 100.334 380.683 100.886 380.683H90.9486V176.119H151.275V380.683Z" fill="black"/>
<rect x="441.231" y="175.619" width="79.4343" height="20.1619" rx="5.5" transform="rotate(180 441.231 175.619)" fill="black" stroke="black"/>
<rect x="441.231" y="401.346" width="79.4343" height="20.1619" rx="5.5" transform="rotate(180 441.231 401.346)" fill="black" stroke="black"/>
<path d="M431.678 380.683H421.74C422.292 380.683 422.74 380.236 422.74 379.683V181.351C422.74 180.799 422.292 180.351 421.74 180.351H417.037C416.485 180.352 416.037 180.799 416.037 181.351V379.683C416.037 380.236 416.485 380.683 417.037 380.683H403.866C404.418 380.683 404.866 380.236 404.866 379.683V181.351C404.866 180.799 404.418 180.352 403.866 180.351H399.163C398.611 180.351 398.163 180.799 398.163 181.351V379.683C398.163 380.236 398.611 380.683 399.163 380.683H385.991C386.543 380.683 386.991 380.236 386.991 379.683V181.351C386.991 180.799 386.543 180.351 385.991 180.351H381.289C380.737 180.351 380.289 180.799 380.289 181.351V379.683C380.289 380.236 380.737 380.683 381.289 380.683H371.351V176.119H431.678V380.683Z" fill="black"/>
<rect x="180.32" y="196.291" width="40.2171" height="196.617" rx="7" fill="black"/>
<rect x="272.168" y="234.014" width="40.2171" height="165.337" rx="7" transform="rotate(-14.4035 272.168 234.014)" fill="black"/>
<rect x="230.591" y="263.32" width="40.2171" height="129.589" rx="7" fill="black"/>
</svg>
